<?xml version="1.0" encoding="UTF-8"?>
<svg id="Layer_1" xmlns="http://www.w3.org/2000/svg" version="1.1" viewBox="0 0 2000 2000">
  <!-- Generator: Adobe Illustrator 29.0.0, SVG Export Plug-In . SVG Version: 2.1.0 Build 186)  -->
  <defs>
    <style>
      .st0 {
        fill: #4ced64;
      }

      .st0, .st1 {
        fill-rule: evenodd;
      }

      .st2 {
        font-family: BOREX-Slant, BOREX;
        font-size: 194.05px;
      }

      .st2, .st1 {
        fill: #1b1b1b;
      }

      .st3 {
        fill: red;
        font-family: FootlightMTLight, 'Footlight MT Light';
        font-size: 461.49px;
      }
    </style>
  </defs>
  <path class="st0" d="M255.59,1172.65c-54.82-90.66-73.22-148.82-5.8-282.8-31.64-37.06-45.42-45.92-45.42-45.92,260.2,19.41,381.7-64.17,617.46-104.14,106.33-18.02,244.09-3.05,436.98,168-255.59-137.59-332.79-183.63-719.36-33.65,69.11,65.65,237.2,123.99,408.06,134.23-164.31,41.24-557.31-99.28-635.65-73.88-78.03,25.3-76.8,167.61-56.27,238.16"/>
  <path class="st1" d="M1808.45,999.99c-234.14-208.18-690.99-13.24-1016.29-72.99,240.73,131.82,728.67-77.08,1016.29,72.99"/>
  <text class="st2" transform="translate(233.61 1175.12)"><tspan x="0" y="0" xml:space="preserve">SAYEARA  COM</tspan></text>
  <text class="st3" transform="translate(1255.49 1168.09)"><tspan x="0" y="0">.</tspan></text>
</svg>